<svg xmlns="http://www.w3.org/2000/svg" viewBox="0 0 444.99 103.22"><defs><style>.cls-1{fill:#528cff;}.cls-2{fill:#fff;}</style></defs><title>Asset 3</title><g id="Layer_2" data-name="Layer 2"><g id="Layer_2-2" data-name="Layer 2"><rect class="cls-1" x="181.23" width="82.66" height="6.64"/><path class="cls-1" d="M270.42,13.73v3.93h-8.18V14.87h1.65V8.24H181.23v6.63h1.66v2.79h-8.18V13.73H.13V64.3H173.22V55.15h1.49V48.79h8.18V59.73h-1.66V64.3h82.66V59.73h-1.65V48.79h8.18v6.36h1.48V64.3H445V13.73Zm-248,35.81H17.78V22.14h4.61Zm6.76,0H24.54V22.14h4.61Zm11.08,0H33.77V22.14h6.46Zm8.6,0H42.37V22.14h6.46Zm11.07,0H53.45V22.14H59.9Zm9.14,0h-7V22.14h7Zm11.34,0H73.66V22.14h6.72Zm8.86,0H82.53V22.14h6.71Zm11.35,0H93.87V22.14h6.72Zm8.86,0h-6.71V22.14h6.71Zm11.35,0h-6.72V22.14h6.72Zm8.86,0h-6.72V22.14h6.72Zm11.35,0h-6.72V22.14H141Zm8.86,0h-6.71V22.14h6.71Zm11.34,0H154.5V22.14h6.71Zm8.87,0h-6.71V22.14h6.71Zm67.5-34.67h8.61V39.19h-8.61Zm-12.19,0H233V39.19h-7.56Zm-13.21,0h7.56V39.19h-7.56Zm-23.85,0h6.82V44.22h-6.82Zm10.61,44.86H188.33V48.79h10.61Zm0-44.86h8.61V39.19h-8.61Zm42.94,44.86H202.73V48.79h39.15Zm14.92,0H246.19V48.79H256.8Zm0-15.51H250V14.87h6.82Zm25,5.32h-6.71V22.14h6.71Zm8.87,0h-6.72V22.14h6.72Zm11.34,0h-6.71V22.14H302Zm8.87,0h-6.72V22.14h6.72Zm11.34,0h-6.72V22.14h6.72Zm8.87,0h-6.72V22.14h6.72Zm11.34,0h-6.71V22.14h6.71Zm8.86,0h-6.71V22.14h6.71Zm11.35,0h-6.72V22.14h6.72Zm8.86,0h-6.71V22.14h6.71Zm11.62,0h-7V22.14h7Zm8.6,0h-6.45V22.14h6.45Zm11.07,0H396.3V22.14h6.45Zm8.61,0H404.9V22.14h6.46Zm9.23,0H416V22.14h4.61Zm6.76,0h-4.61V22.14h4.61Z"/><path class="cls-2" d="M0,88.19V75.66H2.45V88.19Zm5.22-6.65L8.32,86H9.85v5H7.49V88.19H6.86l-4.4-6.56,4.05-6H9.43Z"/><path class="cls-2" d="M19.24,88.19,18.5,86H14.05l-.75,2.22H10.75L15.3,75.66h1.92l4.57,12.53Zm-2.92-8.83-1.58,4.55h3.11Z"/><path class="cls-2" d="M22.85,84.39h2.42a2.14,2.14,0,0,0,2.15,1.77c1.23,0,2-.68,2-1.69s-.64-1.68-1.9-1.68H25.91v-2h1.63a1.51,1.51,0,0,0,1.71-1.58c0-1-.7-1.55-1.81-1.55a2.13,2.13,0,0,0-2.13,1.81H22.86a4.4,4.4,0,0,1,4.6-3.9c2.44,0,4.24,1.35,4.24,3.46a3,3,0,0,1-1.64,2.69,3,3,0,0,1,1.81,2.85c0,2.27-1.88,3.73-4.47,3.73A4.39,4.39,0,0,1,22.85,84.39Z"/><path class="cls-2" d="M41.77,88.19,41,86H36.58l-.75,2.22H33.28l4.55-12.53h1.92l4.57,12.53Zm-2.92-8.83-1.58,4.55h3.11Z"/><path class="cls-2" d="M46.36,88.19V75.66h2.45V88.19Zm5.23-6.65L54.68,86h1.53v5H53.86V88.19h-.64l-4.39-6.56,4-6h2.92Z"/><path class="cls-2" d="M67.36,77.84V88.19H64.92V77.84H61.65V75.66h9v2.18Z"/><path class="cls-2" d="M73.08,88.19V75.66h8.25v2.18H75.52v2.94h5V83h-5V86h5.81v2.18Z"/><path class="cls-2" d="M90.44,88.19,88,83.82,85.6,88.19H82.81l3.88-6.42-3.64-6.11h2.78l2.18,4,2.2-4H93l-3.64,6.11,3.91,6.42Z"/><path class="cls-2" d="M101.93,88.19V82.94H97.69v5.25H95.24V75.66h2.45v5.12h4.24V75.66h2.44V88.19Z"/><path class="cls-2" d="M115.29,87A4.43,4.43,0,0,1,112,88.29,4.48,4.48,0,0,1,108.59,87c-1.25-1.25-1.27-2.65-1.27-5s0-3.8,1.27-5A4.48,4.48,0,0,1,112,75.56a4.43,4.43,0,0,1,3.34,1.32c1.25,1.24,1.29,2.65,1.29,5S116.54,85.72,115.29,87Zm-1.77-8.56a2,2,0,0,0-1.57-.67,2.07,2.07,0,0,0-1.58.67c-.46.52-.6,1.12-.6,3.51s.14,3,.6,3.51a2.12,2.12,0,0,0,1.58.68,2.08,2.08,0,0,0,1.57-.68c.45-.53.61-1.11.61-3.51S114,78.93,113.52,78.41Z"/><path class="cls-2" d="M125.69,88.19V77.84h-3v3.64c0,5.26-1.29,6.71-3.89,6.71h-1V86h.35c1.25,0,2.15-.74,2.15-4.67V75.66h7.79V88.19Z"/><path class="cls-2" d="M139.07,87a4.43,4.43,0,0,1-3.34,1.32A4.48,4.48,0,0,1,132.37,87c-1.25-1.25-1.27-2.65-1.27-5s0-3.8,1.27-5a4.48,4.48,0,0,1,3.36-1.32,4.43,4.43,0,0,1,3.34,1.32c1.25,1.24,1.29,2.65,1.29,5S140.32,85.72,139.07,87Zm-1.77-8.56a2,2,0,0,0-1.57-.67,2.07,2.07,0,0,0-1.58.67c-.46.52-.6,1.12-.6,3.51s.14,3,.6,3.51a2.12,2.12,0,0,0,1.58.68,2.08,2.08,0,0,0,1.57-.68c.45-.53.61-1.11.61-3.51S137.75,78.93,137.3,78.41Z"/><path class="cls-2" d="M145.81,77.84V88.19h-2.45V75.66h7.88v2.18Z"/><path class="cls-2" d="M160.69,88.19v-8l-4.87,8h-2.19V75.66h2.45v8l4.87-8h2.18V88.19Z"/><path class="cls-2" d="M168.51,88.19h-2.9L168.2,83a3.61,3.61,0,0,1-2.15-3.41,3.8,3.8,0,0,1,4.12-3.91H175V88.19h-2.44V83.47h-2Zm4.07-10.38h-2.29a1.66,1.66,0,0,0-1.81,1.72,1.72,1.72,0,0,0,1.81,1.78h2.29Z"/><path class="cls-2" d="M181.37,88.19l4.52-6.65-4.1-5.88h2.89l3.83,6-4.18,6.56Zm7.16,0V75.66H191V88.19Zm6.65,0L191,81.63l3.84-6h2.88l-4.1,5.88,4.53,6.65Z"/><path class="cls-2" d="M207.42,87a4.49,4.49,0,0,1-3.34,1.32,4.54,4.54,0,0,1-3.54-1.42c-.91-1-1.19-2-1.19-3.82V81.22h6.87c0-1.78-.17-2.32-.59-2.81a2,2,0,0,0-1.55-.67,2.11,2.11,0,0,0-2.25,1.83h-2.47a4.82,4.82,0,0,1,8.06-2.69c1.21,1.19,1.27,2.65,1.27,5S208.67,85.74,207.42,87Zm-5.65-3.69v.46a2.39,2.39,0,0,0,.57,1.67,2.22,2.22,0,0,0,1.74.7,2,2,0,0,0,1.55-.65c.38-.42.52-.9.58-2.18Z"/><path class="cls-2" d="M218.33,88.19V82.94h-4.24v5.25h-2.45V75.66h2.45v5.12h4.24V75.66h2.44V88.19Z"/><path class="cls-2" d="M224.15,88.19V75.66h8.25v2.18h-5.81v2.94h4.94V83h-4.94V86h5.81v2.18Z"/><path class="cls-2" d="M244.8,88.19h-5V75.66h8.29v2.18h-5.84v2.54h2.57a3.91,3.91,0,1,1,0,7.81Zm-.13-5.63h-2.44V86h2.44a1.73,1.73,0,1,0,0-3.45Z"/><path class="cls-2" d="M258.8,88.19v-8l-4.88,8h-2.18V75.66h2.45v8l4.87-8h2.18V88.19Z"/><path class="cls-2" d="M263.75,84.39h2.43a2.14,2.14,0,0,0,2.15,1.77c1.23,0,2-.68,2-1.69s-.63-1.68-1.9-1.68h-1.61v-2h1.63a1.51,1.51,0,0,0,1.71-1.58c0-1-.71-1.55-1.81-1.55a2.13,2.13,0,0,0-2.13,1.81h-2.45a4.4,4.4,0,0,1,4.59-3.9c2.45,0,4.24,1.35,4.24,3.46A3,3,0,0,1,271,81.71a3,3,0,0,1,1.81,2.85c0,2.27-1.88,3.73-4.47,3.73A4.39,4.39,0,0,1,263.75,84.39Z"/><path class="cls-2" d="M282.42,88.19V82.94h-4.24v5.25h-2.45V75.66h2.45v5.12h4.24V75.66h2.44V88.19Z"/><path class="cls-2" d="M288.24,88.19V75.66h8.25v2.18h-5.81v2.94h4.95V83h-4.95V86h5.81v2.18Z"/><path class="cls-2" d="M303.54,88.29A4.51,4.51,0,0,1,300.18,87c-1.25-1.25-1.27-2.65-1.27-5s0-3.8,1.27-5a4.51,4.51,0,0,1,3.36-1.32,4.4,4.4,0,0,1,4.59,4h-2.5A2.15,2.15,0,0,0,302,78.39c-.45.53-.61,1.14-.61,3.53s.16,3,.61,3.54a2.17,2.17,0,0,0,3.68-1.13h2.48A4.42,4.42,0,0,1,303.54,88.29Z"/><path class="cls-2" d="M319.49,86.08a3,3,0,0,1-2.79,2.11h-1.5V86h1a1.3,1.3,0,0,0,1.3-.8l.37-.86-4-8.69h2.55l2.62,6,2.37-6h2.54Z"/><path class="cls-2" d="M332.6,88.19V82.94h-4.24v5.25h-2.45V75.66h2.45v5.12h4.24V75.66H335V88.19Z"/><path class="cls-2" d="M345.47,88.19v-8l-4.87,8h-2.18V75.66h2.44v8l4.88-8h2.18V88.19Z"/><path class="cls-2" d="M359.59,82.43a3,3,0,0,1,.78,2.17c0,2.2-1.48,3.59-3.84,3.59h-5.24V75.66h5c2.36,0,3.87,1.34,3.87,3.45a2.84,2.84,0,0,1-1.55,2.66A3.23,3.23,0,0,1,359.59,82.43Zm-3.46-1.7a1.45,1.45,0,1,0,0-2.89h-2.39v2.89Zm.16,5.28a1.54,1.54,0,1,0,0-3.08h-2.55V86Z"/><path class="cls-2" d="M363.32,88.19V75.66h8.25v2.18h-5.8v2.94h4.94V83h-4.94V86h5.8v2.18Z"/><path class="cls-2" d="M379.28,83.47h-2.41v4.72h-2.45V75.66h4.86a3.91,3.91,0,1,1,0,7.81Zm-.13-5.63h-2.28v3.43h2.28a1.65,1.65,0,0,0,1.81-1.7A1.67,1.67,0,0,0,379.15,77.84Z"/><path class="cls-2" d="M390.13,88.29A4.51,4.51,0,0,1,386.77,87c-1.25-1.25-1.27-2.65-1.27-5s0-3.8,1.27-5a4.51,4.51,0,0,1,3.36-1.32,4.4,4.4,0,0,1,4.59,4h-2.5a2,2,0,0,0-2.09-1.77,2,2,0,0,0-1.57.65c-.46.53-.61,1.14-.61,3.53s.15,3,.61,3.54a2,2,0,0,0,1.57.65,2.08,2.08,0,0,0,2.11-1.78h2.48A4.42,4.42,0,0,1,390.13,88.29Z"/><path class="cls-2" d="M404.34,88.19v-8l-4.87,8h-2.18V75.66h2.44v8l4.87-8h2.18V88.19Z"/><path class="cls-2" d="M414.94,77.84V88.19H412.5V77.84h-3.27V75.66h9v2.18Z"/><path class="cls-2" d="M420.66,88.19V75.66h8.25v2.18h-5.8v2.94h4.94V83h-4.94V86h5.8v2.18Z"/><path class="cls-2" d="M436.54,77.84V88.19H434.1V77.84h-3.27V75.66h9v2.18Z"/><path class="cls-2" d="M442.26,88.19V75.66h2.44V88.19Z"/><rect class="cls-2" x="0.13" y="98.64" width="444.86" height="4.58"/></g></g></svg>